<svg width="101" height="20" viewBox="0 0 101 20" fill="none" xmlns="http://www.w3.org/2000/svg">
<path d="M29.8306 1.64C30.364 1.64 30.8173 1.82667 31.1906 2.2C31.564 2.57333 31.7506 3.02667 31.7506 3.56C31.7506 4.06667 31.5773 4.50667 31.2306 4.88C30.884 5.22667 30.4706 5.42667 29.9906 5.48H21.9506C21.1506 5.53333 20.484 5.73333 19.9506 6.08C19.444 6.4 19.044 6.8 18.7506 7.28C18.4573 7.76 18.2573 8.28 18.1506 8.84C18.044 9.4 17.9906 9.90667 17.9906 10.36V17.16C17.9906 17.6933 17.804 18.1467 17.4306 18.52C17.0573 18.8933 16.604 19.08 16.0706 19.08C15.5373 19.08 15.084 18.8933 14.7106 18.52C14.3373 18.1467 14.1506 17.6933 14.1506 17.16V10.36C14.1506 9.53333 14.2573 8.70667 14.4706 7.88C14.684 7.02667 15.004 6.22667 15.4306 5.48H2.31063C1.77729 5.48 1.32396 5.29333 0.950625 4.92C0.577292 4.54667 0.390625 4.09333 0.390625 3.56C0.390625 3.02667 0.577292 2.57333 0.950625 2.2C1.32396 1.82667 1.77729 1.64 2.31063 1.64H29.8306ZM35.7422 3.56C35.7422 3.02667 35.9289 2.57333 36.3022 2.2C36.6755 1.82667 37.1289 1.64 37.6622 1.64H66.0222C66.5555 1.64 67.0089 1.82667 67.3822 2.2C67.7555 2.57333 67.9422 3.02667 67.9422 3.56C67.9422 4.09333 67.7555 4.54667 67.3822 4.92C67.0089 5.29333 66.5555 5.48 66.0222 5.48H37.6622C37.1289 5.48 36.6755 5.29333 36.3022 4.92C35.9289 4.54667 35.7422 4.09333 35.7422 3.56ZM40.6222 19.08C40.0355 19.08 39.4489 18.96 38.8622 18.72C38.2755 18.4533 37.7555 18.0933 37.3022 17.64C36.8489 17.1867 36.4755 16.64 36.1822 16C35.8889 15.36 35.7422 14.64 35.7422 13.84V10.24C35.7422 9.52 35.9422 9.04 36.3422 8.8C36.7689 8.56 37.4222 8.44 38.3022 8.44H65.1422C65.6755 8.44 66.1289 8.62667 66.5022 9C66.8755 9.37333 67.0622 9.82667 67.0622 10.36C67.0622 10.8933 66.8755 11.3467 66.5022 11.72C66.1289 12.0933 65.6755 12.28 65.1422 12.28H39.5822V14.24C39.5822 14.5067 39.6889 14.7467 39.9022 14.96C40.1422 15.1467 40.4489 15.24 40.8222 15.24H66.0222C66.5555 15.24 67.0089 15.4267 67.3822 15.8C67.7555 16.1733 67.9422 16.6267 67.9422 17.16C67.9422 17.6933 67.7555 18.1467 67.3822 18.52C67.0089 18.8933 66.5555 19.08 66.0222 19.08H40.6222ZM75.3531 18.36C74.9531 18.84 74.4598 19.08 73.8731 19.08C73.3398 19.08 72.8865 18.8933 72.5131 18.52C72.1398 18.1467 71.9531 17.6933 71.9531 17.16C71.9531 16.68 72.0865 16.2933 72.3531 16L82.0731 2.92C82.5265 2.30667 83.1265 1.81333 83.8731 1.44C84.6198 1.04 85.4198 0.839998 86.2731 0.839998C87.0731 0.839998 87.8331 1.01333 88.5531 1.36C89.2731 1.70667 89.8598 2.18667 90.3131 2.8L100.033 15.8C100.193 15.9867 100.326 16.2 100.433 16.44C100.54 16.6533 100.593 16.8933 100.593 17.16C100.593 17.6933 100.406 18.1467 100.033 18.52C99.6598 18.8933 99.2065 19.08 98.6731 19.08C98.0331 19.08 97.5265 18.8267 97.1531 18.32L87.8331 5.88C87.6465 5.66667 87.4065 5.44 87.1131 5.2C86.8465 4.93333 86.5665 4.8 86.2731 4.8C85.9798 4.8 85.6865 4.93333 85.3931 5.2C85.1265 5.44 84.9131 5.66667 84.7531 5.88L75.3531 18.36Z" fill="url(#paint0_linear_170_5)"/>
<defs>
<linearGradient id="paint0_linear_170_5" x1="-12.4198" y1="8.89796" x2="119.431" y2="8.89796" gradientUnits="userSpaceOnUse">
<stop stop-color="#877EFF"/>
<stop offset="0.504" stop-color="#7878A3"/>
<stop offset="1" stop-color="#1B1B75"/>
</linearGradient>
</defs>
</svg>
